<?xml version="1.0" encoding="UTF-8" standalone="no"?>
<svg
   height="526.36084"
   width="526.46674"
   id="svg8"
   xmlns="http://www.w3.org/2000/svg"
   version="1.1"
   viewBox="0 0 526.46674 526.36084"
   class="ionicon">
  <defs
     id="defs12" />
  <title
     id="title2">Rocket</title>

<g id="frame0" fill="#ccc" stroke="none">
  <animate attributeName="fill" values="#CCC;transparent;transparent" keyTimes="0;0.25;1" dur="1s" repeatCount="indefinite" begin="0s" calcMode="discrete"/>
  <path
     d="m 991.77362,80.144305 c -21.61818,19.877045 -42.62864,40.390435 -63.55837,60.986945 -5.40377,5.32829 -10.80329,10.66089 -16.21131,15.98487 -13.05137,12.84854 -17.44115,17.24542 -30.63524,29.74712 -12.82008,12.14731 -25.92465,23.9771 -38.99408,35.85338 -11.25733,10.25699 -22.63438,20.37269 -34.1622,30.32287 -1.57639,1.36218 -3.12423,2.75547 -4.70748,4.10955 0,0 -12.93795,5.20962 -12.93795,5.20962 v 0 c 1.70239,-1.33719 3.30285,-2.78499 4.95662,-4.18228 12.04102,-10.10946 23.94772,-20.36695 35.63904,-30.88298 4.61273,-4.13184 21.05972,-18.84652 25.06089,-22.50942 21.03091,-19.25291 41.37617,-39.23263 61.57985,-59.34646 20.2446,-20.14204 40.62345,-40.14465 61.16074,-59.98735 0,0 12.80949,-5.305865 12.80949,-5.305865 z"
     id="path825"
     style="opacity:1;fill:#ffffff;fill-opacity:1;stroke:none;stroke-opacity:1" />
  <g
     transform="translate(16.469992,-2.1865812)"
     style="display:none"
     id="layer1">
    <g
       id="g933"
       style="display:inline">
      <path
         d="m 477.64,38.26 a 4.75,4.75 0 0 0 -3.55,-3.66 c -58.57,-14.32 -193.9,36.71 -267.22,110 a 317,317 0 0 0 -35.63,42.1 c -22.61,-2 -45.22,-0.33 -64.49,8.07 C 52.38,218.7 36.55,281.14 32.14,308 a 9.64,9.64 0 0 0 10.55,11.2 L 130,309.57 a 194.1,194.1 0 0 0 1.19,19.7 19.53,19.53 0 0 0 5.7,12 L 170.7,375 a 19.59,19.59 0 0 0 12,5.7 193.53,193.53 0 0 0 19.59,1.19 l -9.58,87.2 a 9.65,9.65 0 0 0 11.2,10.55 c 26.81,-4.3 89.36,-20.13 113.15,-74.5 8.4,-19.27 10.12,-41.77 8.18,-64.27 a 317.66,317.66 0 0 0 42.21,-35.64 C 441,232.05 491.74,99.74 477.64,38.26 Z M 294.07,217.93 a 48,48 0 1 1 67.86,0 47.95,47.95 0 0 1 -67.86,0 z"
         id="path919" />
      <path
         d="m 168.4,399.43 c -5.48,5.49 -14.27,7.63 -24.85,9.46 -23.77,4.05 -44.76,-16.49 -40.49,-40.52 1.63,-9.11 6.45,-21.88 9.45,-24.88 a 4.37,4.37 0 0 0 -3.65,-7.45 60,60 0 0 0 -35.13,17.12 C 50.22,376.69 48,464 48,464 c 0,0 87.36,-2.22 110.87,-25.75 A 59.69,59.69 0 0 0 176,403.09 c 0.37,-4.18 -4.72,-6.67 -7.6,-3.66 z"
         id="path921" />
    </g>
  </g>
  <g
     transform="translate(16.469992,-2.1865812)"
     style="display:none"
     id="layer2">
    <path
       id="path4"
       d="M 507.64,8.26 A 4.75,4.75 0 0 0 504.09,4.6 c -58.57,-14.32 -193.9,36.71 -267.22,110 a 317,317 0 0 0 -35.63,42.1 c -22.61,-2 -45.22,-0.33 -64.49,8.07 C 82.38,188.7 66.55,251.14 62.14,278 a 9.64,9.64 0 0 0 10.55,11.2 L 160,279.57 a 194.1,194.1 0 0 0 1.19,19.7 19.53,19.53 0 0 0 5.7,12 L 200.7,345 a 19.59,19.59 0 0 0 12,5.7 193.53,193.53 0 0 0 19.59,1.19 l -9.58,87.2 a 9.65,9.65 0 0 0 11.2,10.55 c 26.81,-4.3 89.36,-20.13 113.15,-74.5 8.4,-19.27 10.12,-41.77 8.18,-64.27 a 317.66,317.66 0 0 0 42.21,-35.64 C 471,202.05 521.74,69.74 507.64,8.26 Z M 324.07,187.93 a 48,48 0 1 1 67.86,0 47.95,47.95 0 0 1 -67.86,0 z" />
    <path
       id="path827"
       d="M 92.61414,319.4633 -1.318488,413.39594"
       style="fill:none;stroke:#000000;stroke-width:30;stroke-linecap:round;stroke-linejoin:round;stroke-miterlimit:4;stroke-dasharray:none;stroke-opacity:1;paint-order:fill markers stroke" />
    <path
       id="path827-7"
       d="M 192.61414,419.46331 98.681512,513.39594"
       style="display:inline;fill:none;stroke:#000000;stroke-width:30;stroke-linecap:round;stroke-linejoin:round;stroke-miterlimit:4;stroke-dasharray:none;stroke-opacity:1;paint-order:fill markers stroke" />
    <path
       id="path827-5"
       d="M 142.61414,369.46331 48.681512,463.39594"
       style="display:inline;fill:none;stroke:#000000;stroke-width:30;stroke-linecap:round;stroke-linejoin:round;stroke-miterlimit:4;stroke-dasharray:none;stroke-opacity:1;paint-order:fill markers stroke" />
  </g>
  <g
     transform="translate(16.469992,-2.1865812)"
     style="display:inline"
     id="layer3">
    <path
       id="path4-2"
       d="m 437.62692,82.241658 a 4.75,4.75 0 0 0 -3.55,-3.66 c -58.57005,-14.32 -193.90007,36.710002 -267.22007,109.999992 a 317,317 0 0 0 -35.63,42.1 c -22.61,-2 -45.22,-0.33 -64.49,8.07 -54.36999,23.93 -70.19999,86.37 -74.60999,113.23 a 9.64,9.64 0 0 0 10.55,11.2 l 87.30999,-9.63 a 194.1,194.1 0 0 0 1.19,19.7 19.53,19.53 0 0 0 5.7,12 l 33.81,33.73 a 19.59,19.59 0 0 0 12,5.7 193.53,193.53 0 0 0 19.59,1.19 l -9.58,87.2 a 9.65,9.65 0 0 0 11.2,10.55 c 26.81,-4.3 89.36,-20.13 113.15,-74.5 8.4,-19.27 10.12,-41.77 8.18,-64.27 a 317.66,317.66 0 0 0 42.21,-35.64 c 73.55007,-73.18 124.29007,-205.49 110.19007,-266.969992 z M 254.05685,261.91165 a 48,48 0 1 1 67.86,0 47.95,47.95 0 0 1 -67.86,0 z"
       style="display:inline" />
  </g>
</g>


<g id="frame1"  fill="#ccc">
  <animate xmlns="http://www.w3.org/2000/svg" attributeName="fill" values="transparent;#CCC;transparent" keyTimes="0;0.25;1" dur="1s" repeatCount="indefinite" calcMode="discrete"/>
  <path
     d="m 991.77362,80.144305 c -21.61818,19.877045 -42.62864,40.390435 -63.55837,60.986945 -5.40377,5.32829 -10.80329,10.66089 -16.21131,15.98487 -13.05137,12.84854 -17.44115,17.24542 -30.63524,29.74712 -12.82008,12.14731 -25.92465,23.9771 -38.99408,35.85338 -11.25733,10.25699 -22.63438,20.37269 -34.1622,30.32287 -1.57639,1.36218 -3.12423,2.75547 -4.70748,4.10955 0,0 -12.93795,5.20962 -12.93795,5.20962 v 0 c 1.70239,-1.33719 3.30285,-2.78499 4.95662,-4.18228 12.04102,-10.10946 23.94772,-20.36695 35.63904,-30.88298 4.61273,-4.13184 21.05972,-18.84652 25.06089,-22.50942 21.03091,-19.25291 41.37617,-39.23263 61.57985,-59.34646 20.2446,-20.14204 40.62345,-40.14465 61.16074,-59.98735 0,0 12.80949,-5.305865 12.80949,-5.305865 z"
     id="path825"
     style="opacity:1;fill:#ffffff;fill-opacity:1;stroke:none;stroke-opacity:1" />
  <g
     transform="translate(16.469992,-2.1865812)"
     style="display:none"
     id="layer1">
    <g
       id="g933"
       style="display:inline">
      <path
         d="m 477.64,38.26 a 4.75,4.75 0 0 0 -3.55,-3.66 c -58.57,-14.32 -193.9,36.71 -267.22,110 a 317,317 0 0 0 -35.63,42.1 c -22.61,-2 -45.22,-0.33 -64.49,8.07 C 52.38,218.7 36.55,281.14 32.14,308 a 9.64,9.64 0 0 0 10.55,11.2 L 130,309.57 a 194.1,194.1 0 0 0 1.19,19.7 19.53,19.53 0 0 0 5.7,12 L 170.7,375 a 19.59,19.59 0 0 0 12,5.7 193.53,193.53 0 0 0 19.59,1.19 l -9.58,87.2 a 9.65,9.65 0 0 0 11.2,10.55 c 26.81,-4.3 89.36,-20.13 113.15,-74.5 8.4,-19.27 10.12,-41.77 8.18,-64.27 a 317.66,317.66 0 0 0 42.21,-35.64 C 441,232.05 491.74,99.74 477.64,38.26 Z M 294.07,217.93 a 48,48 0 1 1 67.86,0 47.95,47.95 0 0 1 -67.86,0 z"
         id="path919" />
      <path
         d="m 168.4,399.43 c -5.48,5.49 -14.27,7.63 -24.85,9.46 -23.77,4.05 -44.76,-16.49 -40.49,-40.52 1.63,-9.11 6.45,-21.88 9.45,-24.88 a 4.37,4.37 0 0 0 -3.65,-7.45 60,60 0 0 0 -35.13,17.12 C 50.22,376.69 48,464 48,464 c 0,0 87.36,-2.22 110.87,-25.75 A 59.69,59.69 0 0 0 176,403.09 c 0.37,-4.18 -4.72,-6.67 -7.6,-3.66 z"
         id="path921" />
    </g>
  </g>
  <g
     transform="translate(16.469992,-2.1865812)"
     style="display:inline"
     id="layer2">
    <path
       id="path4"
       d="M 507.64,8.26 A 4.75,4.75 0 0 0 504.09,4.6 c -58.57,-14.32 -193.9,36.71 -267.22,110 a 317,317 0 0 0 -35.63,42.1 c -22.61,-2 -45.22,-0.33 -64.49,8.07 C 82.38,188.7 66.55,251.14 62.14,278 a 9.64,9.64 0 0 0 10.55,11.2 L 160,279.57 a 194.1,194.1 0 0 0 1.19,19.7 19.53,19.53 0 0 0 5.7,12 L 200.7,345 a 19.59,19.59 0 0 0 12,5.7 193.53,193.53 0 0 0 19.59,1.19 l -9.58,87.2 a 9.65,9.65 0 0 0 11.2,10.55 c 26.81,-4.3 89.36,-20.13 113.15,-74.5 8.4,-19.27 10.12,-41.77 8.18,-64.27 a 317.66,317.66 0 0 0 42.21,-35.64 C 471,202.05 521.74,69.74 507.64,8.26 Z M 324.07,187.93 a 48,48 0 1 1 67.86,0 47.95,47.95 0 0 1 -67.86,0 z" />
   <g id="propel">
      <animate xmlns="http://www.w3.org/2000/svg" attributeName="stroke" values="transparent;#666;transparent;#666;" keyTimes="0;0.25;0.50;0.75" dur="1s" repeatCount="indefinite" calcMode="discrete"/>
    <path
       id="path827"
       d="M 92.61414,319.4633 -1.318488,413.39594"
       style="stroke-width:30;stroke-linecap:round;stroke-linejoin:round;stroke-miterlimit:4;stroke-dasharray:none;stroke-opacity:1;paint-order:fill markers stroke" />
    <path
       id="path827-7"
       d="M 192.61414,419.46331 98.681512,513.39594"
       style="display:inline;stroke-width:30;stroke-linecap:round;stroke-linejoin:round;stroke-miterlimit:4;stroke-dasharray:none;stroke-opacity:1;paint-order:fill markers stroke" />
    <path
       id="path827-5"
       d="M 142.61414,369.46331 48.681512,463.39594"
       style="display:inline;stroke-width:30;stroke-linecap:round;stroke-linejoin:round;stroke-miterlimit:4;stroke-dasharray:none;stroke-opacity:1;paint-order:fill markers stroke" />
   </g>
  </g>
  <g
     transform="translate(16.469992,-2.1865812)"
     style="display:none"
     id="layer3">
    <path
       id="path4-2"
       d="m 437.62692,82.241658 a 4.75,4.75 0 0 0 -3.55,-3.66 c -58.57005,-14.32 -193.90007,36.710002 -267.22007,109.999992 a 317,317 0 0 0 -35.63,42.1 c -22.61,-2 -45.22,-0.33 -64.49,8.07 -54.36999,23.93 -70.19999,86.37 -74.60999,113.23 a 9.64,9.64 0 0 0 10.55,11.2 l 87.30999,-9.63 a 194.1,194.1 0 0 0 1.19,19.7 19.53,19.53 0 0 0 5.7,12 l 33.81,33.73 a 19.59,19.59 0 0 0 12,5.7 193.53,193.53 0 0 0 19.59,1.19 l -9.58,87.2 a 9.65,9.65 0 0 0 11.2,10.55 c 26.81,-4.3 89.36,-20.13 113.15,-74.5 8.4,-19.27 10.12,-41.77 8.18,-64.27 a 317.66,317.66 0 0 0 42.21,-35.64 c 73.55007,-73.18 124.29007,-205.49 110.19007,-266.969992 z M 254.05685,261.91165 a 48,48 0 1 1 67.86,0 47.95,47.95 0 0 1 -67.86,0 z"
       style="display:inline" />
  </g>
  </g>
</svg>
